<svg  display="none" xmlns="http://www.w3.org/2000/svg">

    <!-- svg-menu -->
    <symbol id="svg-menu" viewBox="0 0 70 31">
        <g>
           <path fill-rule="evenodd" clip-rule="evenodd" d="M0 30.4286H70V24.4286H0V30.4286ZM0 6.42856H70V0.428558H0V6.42856ZM0 18.4286H70V12.4286H0V18.4286Z"/>
        </g>
    </symbol>


    <!-- svg arrow goris-->
    
    <symbol id="svg-arrow-goris" viewBox="0 0 50 13">
        <g>
            <path d="M1.67041 6.40723L48.33 5.59278"  stroke-width="2" stroke-linecap="round" stroke-linejoin="round"/>
            <path d="M14.9145 1.17529L1.67041 6.40723"  stroke-width="2" stroke-linecap="round" stroke-linejoin="round"/>
            <path d="M15.0889 11.1738L1.67031 6.40723"  stroke-width="2" stroke-linecap="round" stroke-linejoin="round"/>
        </g>
    </symbol>


    <!-- svg diamond-->
    
    <symbol id="svg-diamond" viewBox="0 0 36 50">
        <g>
            <path d="M35.1567 24.7008C31.194 21.4997 20.4477 6.60312 18.4027 0.54082C18.2832 0.186816 18.1802 0 17.9989 0C17.82 0 17.7163 0.186816 17.5975 0.54082C15.5508 6.60312 4.8061 21.4997 0.842627 24.7008C0.739795 24.7831 0.652588 24.9391 0.652588 25C0.652588 25.0609 0.739795 25.217 0.842627 25.2985C4.8061 28.4995 15.5508 43.3961 17.5975 49.4593C17.7163 49.8132 17.82 50 17.9989 50C18.1802 50 18.2832 49.8132 18.4027 49.4593C20.4477 43.3961 31.194 28.4995 35.1567 25.2985C35.2588 25.217 35.3475 25.061 35.3475 25C35.3475 24.9391 35.2588 24.783 35.1567 24.7008Z"/>
        </g>
    </symbol>


    <!-- svg-arrow-up-->
    
    <symbol id="svg-arrow-up" viewBox="0 0 23 23">
        <g>
            <path d="M1.33337 22.3334L22.3334 1.33337M22.3334 1.33337H3.43337M22.3334 1.33337V20.2334" stroke-linecap="round" stroke-linejoin="round"/>
        </g>
    </symbol>

    <!-- svg-arrow-back-->
    
    <symbol id="svg-arrow-back" viewBox="0 0 23 23">
        <g>
            <path d="M22.3334 22.3334L1.33337 1.33337M1.33337 1.33337V20.2334M1.33337 1.33337H20.2334" stroke-linecap="round" stroke-linejoin="round"/>
        </g>
    </symbol>

    <!-- svg-whatsapp-->
    
    <symbol id="svg-whatsapp" viewBox="0 0 30 32">
        <g>
            <path d="M15 1C7.3 1 1 7.3 1 15C1 18.4 2.3 21.6 4.3 24L2 31L9.3 27.8C11 28.6 13 29 15 29C22.7 29 29 22.7 29 15C29 7.3 22.7 1 15 1Z" stroke-miterlimit="10" stroke-linecap="round" stroke-linejoin="round"/>
            <path d="M22.7 20.1C23 19.2 23 18.5 22.9 18.3C22.8 18.1 22.6 18.1 22.2 17.9C21.8 17.7 20 16.8 19.7 16.7C19.4 16.6 19 16.6 18.8 17C18.4 17.5 18.1 18 17.8 18.3C17.6 18.5 17.2 18.6 16.9 18.4C16.5 18.2 15.3 17.8 13.9 16.6C12.8 15.6 12.1 14.4 11.8 14C11.6 13.6 11.8 13.4 12 13.2C12.2 13 12.4 12.8 12.6 12.6C12.8 12.4 12.9 12.3 13 12C13.1 11.8 13 11.5 12.9 11.3C12.8 11.1 12.1 9.3 11.8 8.6C11.6 8 11.4 8 11 8C10.9 8 10.7 8 10.6 8C10.1 8 9.6 8.1 9.3 8.5C8.9 8.9 8 9.8 8 11.6C8 13.4 9.3 15.2 9.5 15.4C9.7 15.6 12.1 19.4 15.8 21C18.7 22.2 19.6 22.1 20.2 22C21.2 21.7 22.4 21 22.7 20.1Z"/>
        </g>
    </symbol>


    <!-- svg-telegram-->
    
    <symbol id="svg-telegram" viewBox="0 0 32 32">
        <g>
            <path fill-rule="evenodd" clip-rule="evenodd" d="M30.5664 15.6667C30.5664 23.9509 23.8506 30.6667 15.5664 30.6667C7.28215 30.6667 0.566406 23.9509 0.566406 15.6667C0.566406 7.38241 7.28215 0.666687 15.5664 0.666687C23.8506 0.666687 30.5664 7.38241 30.5664 15.6667ZM16.1039 11.7403C14.645 12.3472 11.7291 13.6031 7.35626 15.5083C6.64619 15.7907 6.27422 16.067 6.24035 16.337C6.18313 16.7936 6.75479 16.9733 7.53325 17.2181C7.63913 17.2514 7.74884 17.2859 7.86131 17.3224C8.6272 17.5714 9.65743 17.8627 10.193 17.8742C10.6788 17.8847 11.2211 17.6845 11.8197 17.2733C15.9053 14.5154 18.0144 13.1215 18.1467 13.0913C18.2402 13.0702 18.3696 13.0435 18.4574 13.1215C18.5451 13.1995 18.5364 13.3471 18.5271 13.3867C18.4706 13.6282 16.2266 15.7144 15.0653 16.7939C14.7033 17.1305 14.4465 17.3692 14.394 17.4238C14.2764 17.5459 14.1566 17.6614 14.0414 17.7724C13.3299 18.4583 12.7962 18.9727 14.0709 19.8127C14.6834 20.2163 15.1736 20.5501 15.6626 20.8831C16.1966 21.2468 16.7292 21.6095 17.4185 22.0613C17.594 22.1764 17.7617 22.2959 17.925 22.4123C18.5465 22.8554 19.1048 23.2535 19.7946 23.1899C20.1954 23.1532 20.6094 22.7762 20.8197 21.6521C21.3167 18.9956 22.2935 13.2397 22.5192 10.8679C22.539 10.6601 22.5141 10.3942 22.494 10.2774C22.4741 10.1607 22.4324 9.99432 22.2806 9.87118C22.1009 9.72535 21.8234 9.6946 21.6993 9.69669C21.1352 9.70674 20.2695 10.0077 16.1039 11.7403Z"  stroke-linejoin="round"/>
        </g>
    </symbol>

    <!-- svg-phone-->
    
    <symbol id="svg-phone" viewBox="0 0 20 32">
        <g>
            <path d="M16.3983 1.33337H3.2276C1.81321 1.33337 0.666626 2.47996 0.666626 3.89435V28.7724C0.666626 30.1868 1.81321 31.3334 3.2276 31.3334H16.3983C17.8127 31.3334 18.9593 30.1868 18.9593 28.7724V3.89435C18.9593 2.47996 17.8127 1.33337 16.3983 1.33337Z" />
            <path d="M9.81291 26.9431C10.8233 26.9431 11.6422 26.1242 11.6422 25.1138C11.6422 24.1035 10.8233 23.2845 9.81291 23.2845C8.80257 23.2845 7.98364 24.1035 7.98364 25.1138C7.98364 26.1242 8.80257 26.9431 9.81291 26.9431Z"/>   
        </g>
    </symbol>

    <!-- svg-x -->
    <symbol id="svg-x" viewBox="0 0 28 28">
        <g>
           <path fill-rule="evenodd" clip-rule="evenodd" d="M18.3312 9.66879C17.9891 9.32754 17.4352 9.32754 17.094 9.66879L14 12.7662L10.906 9.66879C10.5648 9.32754 10.0109 9.32754 9.66875 9.66879C9.3275 10.01 9.3275 10.5612 9.66875 10.9025L12.7627 14L9.66875 17.0975C9.3275 17.4388 9.3275 17.99 9.66875 18.3312C10.0109 18.6725 10.5648 18.6725 10.906 18.3312L14 15.2338L17.094 18.3312C17.4352 18.6725 17.9891 18.6725 18.3312 18.3312C18.6725 17.99 18.6725 17.4388 18.3312 17.0975L15.2373 14L18.3312 10.9025C18.6725 10.5612 18.6725 10.01 18.3312 9.66879ZM26.25 24.5C26.25 25.4625 25.466 26.25 24.5 26.25H3.5C2.534 26.25 1.75 25.4625 1.75 24.5V3.5C1.75 2.5375 2.534 1.75 3.5 1.75H24.5C25.466 1.75 26.25 2.5375 26.25 3.5V24.5ZM24.5 0H3.5C1.56712 0 0 1.56625 0 3.5V24.5C0 26.4338 1.56712 28 3.5 28H24.5C26.4329 28 28 26.4338 28 24.5V3.5C28 1.56625 26.4329 0 24.5 0Z" />
        </g>
    </symbol>




</svg>
